<svg xmlns="http://www.w3.org/2000/svg" version="1.1" xmlns:xlink="http://www.w3.org/1999/xlink" xmlns:svgjs="http://svgjs.dev/svgjs" width="2000" height="1500" viewBox="0 0 2000 1500"><rect width="2000" height="1500" fill="#ffffff"></rect><g transform="matrix(0.75,0,0,0.75,249.090909090909,625.6649426851661)"><svg viewBox="0 0 396 65" data-background-color="#ffffff" preserveAspectRatio="xMidYMid meet" height="328" width="2000" xmlns="http://www.w3.org/2000/svg" xmlns:xlink="http://www.w3.org/1999/xlink"><g id="tight-bounds" transform="matrix(1,0,0,1,0.2400000000000091,0.3527590466024435)"><svg viewBox="0 0 395.52 64.29448190679508" height="64.29448190679508" width="395.52"><g><svg viewBox="0 0 493.8407608707644 80.27719423706331" height="64.29448190679508" width="395.52"><g transform="matrix(1,0,0,1,98.32076087076443,1.9230084231515363)"><svg viewBox="0 0 395.52 76.43117739076024" height="76.43117739076024" width="395.52"><g id="textblocktransform"><svg viewBox="0 0 395.52 76.43117739076024" height="76.43117739076024" width="395.52" id="textblock"><g><svg viewBox="0 0 395.52 76.43117739076024" height="76.43117739076024" width="395.52"><g transform="matrix(1,0,0,1,0,0)"><svg width="395.52" viewBox="1.61 -34.35 234.08999999999997 45.24" height="76.43117739076024" data-palette-color="#009619"><path d="M32.45-2.1L32.45 0.15Q32.13 0.17 31.2 0.49 30.27 0.81 29.15 0.81L29.15 0.81Q26.59 0.81 25.09-0.05 23.58-0.9 22.77-2.31 21.95-3.71 21.47-5.4 21-7.08 20.51-8.75 20.02-10.42 19.17-11.83 18.31-13.23 16.77-14.09 15.23-14.94 12.6-14.94L12.6-14.94Q11.82-14.94 11.12-14.89 10.42-14.84 10.35-14.84L10.35-14.84 10.35-3.44Q10.35-3.08 10.61-2.73 10.86-2.39 11.4-2.34L11.4-2.34 14.04-2.15 14.04 0 1.61 0 1.61-2.15 4.2-2.34Q4.74-2.39 5.02-2.73 5.3-3.08 5.3-3.44L5.3-3.44 5.3-30.1Q5.3-30.47 5.02-30.82 4.74-31.18 4.2-31.2L4.2-31.2 1.61-31.4 1.61-33.54 14.65-33.54Q20.34-33.54 23.62-31.58 26.9-29.61 26.9-24.66L26.9-24.66Q26.9-22.05 25.73-20.37 24.56-18.7 22.69-17.75 20.83-16.8 18.7-16.31L18.7-16.31Q21.02-15.75 22.33-14.71 23.63-13.67 24.27-12.35 24.9-11.04 25.22-9.62 25.54-8.2 25.85-6.86 26.17-5.52 26.82-4.44 27.47-3.37 28.78-2.73 30.1-2.1 32.45-2.1L32.45-2.1ZM21.46-24.44L21.46-24.44Q21.46-27.64 19.42-29.37 17.38-31.1 12.65-31.1L12.65-31.1 10.35-31.1 10.35-17.41Q10.47-17.41 11.36-17.38 12.26-17.36 12.84-17.36L12.84-17.36Q17.02-17.36 19.24-18.9 21.46-20.43 21.46-24.44ZM59.84-1.95L59.84 0 51.9 0 51.9-2.86Q51.05-2.2 49.73-1.39 48.41-0.59 46.9 0.01 45.38 0.61 43.89 0.61L43.89 0.61Q40.67 0.61 38.83-1.33 36.98-3.27 36.98-7.5L36.98-7.5 36.98-21.04 33.49-21.04 33.49-22.75 39.65-24.71 41.65-24.71 41.65-8.45Q41.65-5.79 42.73-4.3 43.82-2.81 46.48-2.81L46.48-2.81Q48.02-2.81 49.51-3.33 51-3.86 51.9-4.3L51.9-4.3 51.9-21.04 48.39-21.04 48.39-22.75 54.49-24.71 56.54-24.71 56.54-3.2Q56.54-2.73 56.87-2.44 57.2-2.15 57.64-2.1L57.64-2.1 59.84-1.95ZM87.13-12.4L87.13-12.4Q87.13-8.47 85.62-5.54 84.1-2.61 81.27-1 78.44 0.61 74.48 0.61L74.48 0.61Q73.58 0.61 72.54 0.49 71.5 0.37 70.77 0.26 70.04 0.15 70.04 0.15L70.04 0.15 70.04 7.59Q70.04 8.06 70.36 8.33 70.67 8.59 71.14 8.64L71.14 8.64 74.09 8.96 74.09 10.89 61.93 10.89 61.93 8.96 64.33 8.64Q65.38 8.57 65.38 7.59L65.38 7.59 65.38-20.56 61.93-20.56 61.93-22.19 68.09-24.1 70.04-24.1 70.04-21.61Q70.04-21.61 70.66-22.07 71.28-22.53 72.35-23.16 73.41-23.78 74.76-24.24 76.12-24.71 77.58-24.71L77.58-24.71Q80.17-24.71 82.33-23.18 84.49-21.66 85.81-18.9 87.13-16.14 87.13-12.4ZM82.12-11.69L82.12-11.69Q82.12-14.28 81.33-16.43 80.54-18.58 78.99-19.89 77.44-21.19 75.14-21.19L75.14-21.19Q73.9-21.19 72.72-20.83 71.55-20.46 70.8-20.08 70.04-19.7 70.04-19.7L70.04-19.7 70.04-2.49Q70.04-2.49 71.3-2.1 72.55-1.71 74.09-1.71L74.09-1.71Q76.85-1.71 78.62-3.13 80.39-4.54 81.26-6.82 82.12-9.11 82.12-11.69ZM111.64-5.54L111.64-2.49Q109.54-1.2 107.11-0.29 104.68 0.61 102.14 0.61L102.14 0.61Q99.11 0.61 96.46-0.74 93.82-2.1 92.18-4.86 90.54-7.62 90.54-11.79L90.54-11.79Q90.54-15.7 92.06-18.6 93.57-21.51 96.23-23.11 98.89-24.71 102.29-24.71L102.29-24.71Q106.95-24.71 109.29-21.81 111.64-18.92 111.64-14.45L111.64-14.45Q111.64-14.21 111.64-13.81 111.64-13.4 111.59-13.06L111.59-13.06 95.38-13.06Q95.38-11.16 95.78-9.27 96.18-7.37 97.14-5.83 98.09-4.3 99.7-3.37 101.31-2.44 103.73-2.44L103.73-2.44Q105.88-2.44 107.91-3.43 109.95-4.42 111.64-5.54L111.64-5.54ZM95.65-15.31L106.63-15.31 106.63-16.41Q106.63-18.87 105.45-20.56 104.26-22.24 101.77-22.24L101.77-22.24Q99.31-22.24 97.58-20.39 95.84-18.53 95.65-15.31L95.65-15.31ZM136.15-5.54L136.15-2.49Q134.05-1.2 131.62-0.29 129.19 0.61 126.65 0.61L126.65 0.61Q123.62 0.61 120.97-0.74 118.32-2.1 116.69-4.86 115.05-7.62 115.05-11.79L115.05-11.79Q115.05-15.7 116.57-18.6 118.08-21.51 120.74-23.11 123.4-24.71 126.8-24.71L126.8-24.71Q131.46-24.71 133.8-21.81 136.15-18.92 136.15-14.45L136.15-14.45Q136.15-14.21 136.15-13.81 136.15-13.4 136.1-13.06L136.1-13.06 119.89-13.06Q119.89-11.16 120.29-9.27 120.69-7.37 121.65-5.83 122.6-4.3 124.21-3.37 125.82-2.44 128.24-2.44L128.24-2.44Q130.39-2.44 132.42-3.43 134.46-4.42 136.15-5.54L136.15-5.54ZM120.16-15.31L131.14-15.31 131.14-16.41Q131.14-18.87 129.96-20.56 128.77-22.24 126.28-22.24L126.28-22.24Q123.82-22.24 122.08-20.39 120.35-18.53 120.16-15.31L120.16-15.31ZM161.95-9.4L161.95-9.4Q161.95-6.88 160.6-4.54 159.24-2.2 156.32-0.7 153.41 0.81 148.69 0.81L148.69 0.81Q146.01 0.81 144.01 0.34 142-0.12 140.91-0.59 139.81-1.05 139.81-1.05L139.81-1.05 139.81-9.91 142.96-9.91 143.62-4.25Q143.66-3.96 143.93-3.61 144.2-3.27 144.45-3.15L144.45-3.15Q144.57-3.13 145.87-2.56 147.18-2 149.5-2L149.5-2Q152.7-2 154.77-3.56 156.85-5.13 156.85-7.91L156.85-7.91Q156.85-9.42 156.01-10.56 155.16-11.69 153.82-12.57 152.48-13.45 150.95-14.17 149.43-14.89 148.06-15.55L148.06-15.55Q146.01-16.53 144.25-17.64 142.49-18.75 141.42-20.39 140.34-22.02 140.34-24.56L140.34-24.56Q140.34-27.54 141.86-29.74 143.37-31.93 145.98-33.14 148.6-34.35 151.89-34.35L151.89-34.35Q154.58-34.35 156.63-33.83 158.68-33.3 160.27-32.79L160.27-32.79 160.71-32.64 160.71-24.85 157.85-24.85 157.09-29.64Q157.04-29.98 156.79-30.14 156.53-30.3 156.31-30.52L156.31-30.52Q156.12-30.66 155.1-31.15 154.09-31.64 151.97-31.64L151.97-31.64Q148.96-31.64 147.23-29.97 145.5-28.3 145.5-25.76L145.5-25.76Q145.5-23.46 147.29-21.95 149.08-20.43 152.45-19.14L152.45-19.14Q156.99-17.43 159.47-15.3 161.95-13.16 161.95-9.4ZM190.15-12.4L190.15-12.4Q190.15-8.47 188.63-5.54 187.12-2.61 184.29-1 181.45 0.61 177.5 0.61L177.5 0.61Q176.6 0.61 175.56 0.49 174.52 0.37 173.79 0.26 173.06 0.15 173.06 0.15L173.06 0.15 173.06 7.59Q173.06 8.06 173.37 8.33 173.69 8.59 174.15 8.64L174.15 8.64 177.11 8.96 177.11 10.89 164.95 10.89 164.95 8.96 167.34 8.64Q168.39 8.57 168.39 7.59L168.39 7.59 168.39-20.56 164.95-20.56 164.95-22.19 171.1-24.1 173.06-24.1 173.06-21.61Q173.06-21.61 173.68-22.07 174.3-22.53 175.36-23.16 176.43-23.78 177.78-24.24 179.14-24.71 180.6-24.71L180.6-24.71Q183.19-24.71 185.35-23.18 187.51-21.66 188.83-18.9 190.15-16.14 190.15-12.4ZM185.14-11.69L185.14-11.69Q185.14-14.28 184.35-16.43 183.55-18.58 182-19.89 180.45-21.19 178.16-21.19L178.16-21.19Q176.91-21.19 175.74-20.83 174.57-20.46 173.81-20.08 173.06-19.7 173.06-19.7L173.06-19.7 173.06-2.49Q173.06-2.49 174.31-2.1 175.57-1.71 177.11-1.71L177.11-1.71Q179.87-1.71 181.64-3.13 183.41-4.54 184.27-6.82 185.14-9.11 185.14-11.69ZM217.34-12.01L217.34-12.01Q217.34-8.47 215.88-5.6 214.41-2.73 211.74-1.06 209.06 0.61 205.4 0.61L205.4 0.61Q201.76 0.61 199.1-1.05 196.44-2.71 195-5.57 193.56-8.42 193.56-12.01L193.56-12.01Q193.56-15.58 195.01-18.46 196.47-21.34 199.16-23.02 201.86-24.71 205.55-24.71L205.55-24.71Q209.28-24.71 211.92-23 214.56-21.29 215.95-18.41 217.34-15.53 217.34-12.01ZM212.14-12.06L212.14-12.06Q212.14-14.79 211.42-17.16 210.7-19.53 209.22-21 207.75-22.46 205.5-22.46L205.5-22.46Q203.18-22.46 201.7-21 200.23-19.53 199.52-17.16 198.81-14.79 198.81-12.06L198.81-12.06Q198.81-9.35 199.53-6.97 200.25-4.59 201.73-3.13 203.21-1.66 205.45-1.66L205.45-1.66Q207.75-1.66 209.22-3.13 210.7-4.59 211.42-6.96 212.14-9.33 212.14-12.06ZM235.7-3.05L235.7-3.05 235.7-1.05Q235.7-1.05 234.76-0.63 233.82-0.22 232.29 0.2 230.77 0.61 228.96 0.61L228.96 0.61Q226.15 0.61 224.87-0.72 223.59-2.05 223.59-5L223.59-5 223.59-21.61 220.39-21.61 220.39-23.24 223.81-24.85 226.05-30.15 228.25-30.15 228.25-24.1 235.31-24.1 235.31-21.61 228.25-21.61 228.25-7.64Q228.25-4.66 229.25-3.43 230.25-2.2 232.26-2.2L232.26-2.2Q233.72-2.2 234.71-2.62 235.7-3.05 235.7-3.05Z" opacity="1" transform="matrix(1,0,0,1,0,0)" fill="#009619" class="wordmark-text-0" data-fill-palette-color="primary" id="text-0"></path></svg></g></svg></g></svg></g></svg></g><g><svg viewBox="0 0 80.27719423706331 80.27719423706331" height="80.27719423706331" width="80.27719423706331"><g><svg xmlns="http://www.w3.org/2000/svg" xmlns:xlink="http://www.w3.org/1999/xlink" version="1.1" x="0" y="0" viewBox="6 6 88 88" enable-background="new 0 0 100 100" xml:space="preserve" height="80.27719423706331" width="80.27719423706331" class="icon-icon-0" data-fill-palette-color="accent" id="icon-0"><g fill="#f8f053" data-fill-palette-color="accent"><path d="M50 6C25.699 6 6 25.699 6 50S25.699 94 50 94 94 74.301 94 50 74.301 6 50 6M50 87C29.565 87 13 70.435 13 50S29.565 13 50 13 87 29.565 87 50 70.435 87 50 87" fill="#f8f053" data-fill-palette-color="accent"></path><path d="M50 17C31.774 17 17 31.774 17 50S31.774 83 50 83 83 68.226 83 50 68.226 17 50 17M57.768 35.843C58.12 36.497 58.379 37.218 58.55 38H66L63 43H58.547C58.205 44.718 57.509 46.196 56.441 47.424 54.869 49.233 51.61 50.51 48.663 51.255 50.549 54.596 60.056 67.857 62.218 71.118A31 31 0 0 0 59.565 71H54.231C53.346 71 52.453 71.039 51.548 71.118L42 55.553 39 50.086C39.048 50.091 39.1 50.101 39.146 50.105 39.362 50.126 41.568 50.135 41.765 50.135 44.358 50.135 46.342 49.438 47.717 48.042 48.873 46.87 49.537 45.184 49.721 42.999H33L36 37.999H49.368C49.329 37.859 49.296 37.709 49.251 37.58 48.897 36.559 48.356 35.782 47.63 35.252 46.902 34.722 45.959 34.378 44.801 34.221 43.884 34.097 41.357 34.025 39.734 33.999H33L36 28.999H66L63 33.999H56.471A9.6 9.6 0 0 1 57.768 35.843" fill="#f8f053" data-fill-palette-color="accent"></path></g></svg></g></svg></g></svg></g><defs></defs></svg><rect width="395.52" height="64.29448190679508" fill="none" stroke="none" visibility="hidden"></rect></g></svg></g></svg>