<?xml version="1.0" encoding="UTF-8"?>
<svg xmlns="http://www.w3.org/2000/svg" xmlns:xlink="http://www.w3.org/1999/xlink" width="68px" height="50px" viewBox="0 0 68 50" version="1.1">
<defs>
<clipPath id="clip1">
  <path d="M 19.023438 21.09375 L 58.804688 21.09375 L 58.804688 28.816406 L 19.023438 28.816406 Z M 19.023438 21.09375 "/>
</clipPath>
<clipPath id="clip2">
  <path d="M 9.132812 20.898438 L 17.207031 20.898438 L 17.207031 29.011719 L 9.132812 29.011719 Z M 9.132812 20.898438 "/>
</clipPath>
<clipPath id="clip3">
  <path d="M 10 21.667969 L 17 21.667969 L 17 28 L 10 28 Z M 10 21.667969 "/>
</clipPath>
</defs>
<g id="surface1">
<path style=" stroke:none;fill-rule:nonzero;fill:rgb(100%,100%,100%);fill-opacity:1;" d="M 0.816406 0 L 67.183594 0 L 67.183594 50 L 0.816406 50 Z M 0.816406 0 "/>
<g clip-path="url(#clip1)" clip-rule="nonzero">
<path style=" stroke:none;fill-rule:nonzero;fill:rgb(0%,58.823529%,9.803922%);fill-opacity:1;" d="M 24.265625 26.601562 L 24.265625 26.984375 C 24.226562 26.984375 24.160156 27.003906 24.050781 27.042969 C 23.949219 27.078125 23.832031 27.097656 23.707031 27.097656 C 23.417969 27.097656 23.183594 27.042969 23.015625 26.945312 C 22.847656 26.855469 22.710938 26.726562 22.617188 26.5625 C 22.527344 26.40625 22.457031 26.230469 22.398438 26.035156 C 22.347656 25.847656 22.292969 25.652344 22.238281 25.460938 C 22.179688 25.273438 22.105469 25.097656 22.007812 24.941406 C 21.914062 24.777344 21.777344 24.648438 21.601562 24.550781 C 21.425781 24.453125 21.191406 24.40625 20.894531 24.40625 C 20.804688 24.40625 20.71875 24.40625 20.640625 24.414062 C 20.5625 24.421875 20.519531 24.425781 20.511719 24.425781 L 20.511719 26.375 C 20.511719 26.414062 20.527344 26.453125 20.550781 26.492188 C 20.582031 26.53125 20.628906 26.550781 20.6875 26.554688 L 21.132812 26.589844 L 21.132812 26.960938 L 19.023438 26.960938 L 19.023438 26.589844 L 19.460938 26.554688 C 19.527344 26.550781 19.574219 26.53125 19.605469 26.492188 C 19.636719 26.453125 19.652344 26.414062 19.652344 26.375 L 19.652344 21.824219 C 19.652344 21.777344 19.636719 21.738281 19.605469 21.699219 C 19.574219 21.652344 19.527344 21.632812 19.460938 21.632812 L 19.023438 21.59375 L 19.023438 21.230469 L 21.238281 21.230469 C 21.886719 21.230469 22.390625 21.339844 22.769531 21.570312 C 23.136719 21.789062 23.324219 22.1875 23.324219 22.746094 C 23.324219 23.046875 23.253906 23.289062 23.125 23.484375 C 22.988281 23.671875 22.820312 23.820312 22.605469 23.925781 C 22.398438 24.035156 22.171875 24.121094 21.933594 24.171875 C 22.191406 24.238281 22.398438 24.328125 22.546875 24.445312 C 22.691406 24.5625 22.800781 24.699219 22.878906 24.851562 C 22.949219 25 23 25.15625 23.035156 25.3125 C 23.074219 25.476562 23.113281 25.632812 23.144531 25.789062 C 23.183594 25.9375 23.234375 26.074219 23.304688 26.199219 C 23.382812 26.320312 23.492188 26.417969 23.644531 26.492188 C 23.792969 26.5625 24 26.601562 24.265625 26.601562 Z M 22.398438 22.785156 C 22.398438 22.421875 22.28125 22.140625 22.046875 21.945312 C 21.820312 21.746094 21.4375 21.648438 20.902344 21.648438 L 20.511719 21.648438 L 20.511719 23.984375 C 20.527344 23.984375 20.582031 23.992188 20.679688 23.992188 C 20.785156 23.992188 20.867188 23.996094 20.933594 23.996094 C 21.40625 23.996094 21.769531 23.90625 22.023438 23.730469 C 22.269531 23.554688 22.398438 23.242188 22.398438 22.785156 Z M 28.917969 26.628906 L 28.917969 26.960938 L 27.570312 26.960938 L 27.570312 26.472656 C 27.472656 26.542969 27.351562 26.628906 27.199219 26.71875 C 27.050781 26.808594 26.890625 26.886719 26.722656 26.960938 C 26.546875 27.023438 26.378906 27.0625 26.210938 27.0625 C 25.847656 27.0625 25.554688 26.953125 25.347656 26.730469 C 25.140625 26.511719 25.035156 26.160156 25.035156 25.675781 L 25.035156 23.367188 L 24.441406 23.367188 L 24.441406 23.074219 L 25.488281 22.742188 L 25.828125 22.742188 L 25.828125 25.515625 C 25.828125 25.820312 25.890625 26.054688 26.015625 26.222656 C 26.136719 26.394531 26.34375 26.476562 26.648438 26.476562 C 26.824219 26.476562 26.992188 26.445312 27.164062 26.386719 C 27.332031 26.328125 27.46875 26.277344 27.570312 26.222656 L 27.570312 23.367188 L 26.972656 23.367188 L 26.972656 23.074219 L 28.011719 22.742188 L 28.359375 22.742188 L 28.359375 26.414062 C 28.359375 26.464844 28.378906 26.511719 28.414062 26.542969 C 28.453125 26.574219 28.496094 26.59375 28.550781 26.601562 Z M 33.558594 24.84375 C 33.558594 25.285156 33.476562 25.675781 33.300781 26.007812 C 33.132812 26.347656 32.886719 26.601562 32.5625 26.785156 C 32.242188 26.972656 31.855469 27.0625 31.40625 27.0625 C 31.304688 27.0625 31.195312 27.058594 31.078125 27.042969 C 30.960938 27.023438 30.863281 27.011719 30.777344 27.003906 C 30.695312 26.992188 30.65625 26.984375 30.65625 26.984375 L 30.65625 28.253906 C 30.65625 28.308594 30.667969 28.347656 30.707031 28.378906 C 30.738281 28.410156 30.785156 28.425781 30.835938 28.429688 L 31.34375 28.488281 L 31.34375 28.816406 L 29.273438 28.816406 L 29.273438 28.488281 L 29.683594 28.429688 C 29.800781 28.425781 29.859375 28.367188 29.859375 28.253906 L 29.859375 23.449219 L 29.273438 23.449219 L 29.273438 23.171875 L 30.324219 22.84375 L 30.65625 22.84375 L 30.65625 23.269531 C 30.65625 23.269531 30.6875 23.242188 30.757812 23.191406 C 30.832031 23.136719 30.921875 23.074219 31.042969 23 C 31.167969 22.9375 31.304688 22.871094 31.453125 22.820312 C 31.609375 22.765625 31.769531 22.742188 31.933594 22.742188 C 32.230469 22.742188 32.496094 22.824219 32.742188 23 C 32.988281 23.175781 33.183594 23.417969 33.332031 23.730469 C 33.480469 24.042969 33.558594 24.414062 33.558594 24.84375 Z M 32.703125 24.960938 C 32.703125 24.667969 32.660156 24.402344 32.574219 24.152344 C 32.484375 23.90625 32.347656 23.710938 32.171875 23.5625 C 31.996094 23.410156 31.785156 23.339844 31.519531 23.339844 C 31.382812 23.339844 31.246094 23.359375 31.109375 23.40625 C 30.972656 23.445312 30.871094 23.488281 30.785156 23.527344 C 30.695312 23.574219 30.65625 23.59375 30.65625 23.59375 L 30.65625 26.53125 C 30.65625 26.53125 30.726562 26.554688 30.871094 26.601562 C 31.011719 26.640625 31.167969 26.667969 31.34375 26.667969 C 31.652344 26.667969 31.914062 26.582031 32.113281 26.425781 C 32.316406 26.261719 32.464844 26.054688 32.5625 25.792969 C 32.660156 25.535156 32.703125 25.253906 32.703125 24.960938 Z M 37.71875 26.007812 L 37.71875 26.53125 C 37.488281 26.679688 37.226562 26.804688 36.957031 26.90625 C 36.675781 27.011719 36.398438 27.0625 36.105469 27.0625 C 35.761719 27.0625 35.445312 26.984375 35.140625 26.828125 C 34.84375 26.679688 34.601562 26.445312 34.414062 26.125 C 34.226562 25.8125 34.136719 25.417969 34.136719 24.949219 C 34.136719 24.5 34.21875 24.113281 34.394531 23.78125 C 34.5625 23.449219 34.804688 23.195312 35.101562 23.015625 C 35.40625 22.832031 35.75 22.742188 36.132812 22.742188 C 36.664062 22.742188 37.058594 22.902344 37.324219 23.234375 C 37.589844 23.5625 37.71875 23.984375 37.71875 24.492188 C 37.71875 24.519531 37.71875 24.558594 37.71875 24.601562 C 37.71875 24.648438 37.71875 24.6875 37.714844 24.726562 L 34.960938 24.726562 C 34.960938 24.949219 34.984375 25.164062 35.03125 25.378906 C 35.074219 25.59375 35.148438 25.789062 35.257812 25.964844 C 35.367188 26.140625 35.511719 26.277344 35.691406 26.378906 C 35.875 26.492188 36.105469 26.542969 36.378906 26.542969 C 36.625 26.542969 36.859375 26.484375 37.089844 26.375 C 37.320312 26.257812 37.53125 26.140625 37.71875 26.007812 Z M 35.003906 24.34375 L 36.871094 24.34375 L 36.871094 24.152344 C 36.871094 23.875 36.804688 23.640625 36.671875 23.449219 C 36.535156 23.253906 36.328125 23.164062 36.046875 23.164062 C 35.769531 23.164062 35.53125 23.269531 35.335938 23.476562 C 35.132812 23.691406 35.023438 23.976562 35.003906 24.34375 Z M 41.886719 26.007812 L 41.886719 26.53125 C 41.648438 26.679688 41.394531 26.804688 41.117188 26.90625 C 40.84375 27.011719 40.558594 27.0625 40.273438 27.0625 C 39.929688 27.0625 39.605469 26.984375 39.308594 26.828125 C 39.011719 26.679688 38.765625 26.445312 38.582031 26.125 C 38.394531 25.8125 38.304688 25.417969 38.304688 24.949219 C 38.304688 24.5 38.386719 24.113281 38.5625 23.78125 C 38.730469 23.449219 38.964844 23.195312 39.269531 23.015625 C 39.566406 22.832031 39.910156 22.742188 40.300781 22.742188 C 40.824219 22.742188 41.21875 22.902344 41.484375 23.234375 C 41.75 23.5625 41.886719 23.984375 41.886719 24.492188 C 41.886719 24.519531 41.886719 24.558594 41.886719 24.601562 C 41.886719 24.648438 41.886719 24.6875 41.882812 24.726562 L 39.125 24.726562 C 39.125 24.949219 39.144531 25.164062 39.191406 25.378906 C 39.238281 25.59375 39.316406 25.789062 39.425781 25.964844 C 39.527344 26.140625 39.675781 26.277344 39.859375 26.378906 C 40.039062 26.492188 40.265625 26.542969 40.546875 26.542969 C 40.785156 26.542969 41.027344 26.484375 41.253906 26.375 C 41.484375 26.257812 41.691406 26.140625 41.886719 26.007812 Z M 39.171875 24.34375 L 41.039062 24.34375 L 41.039062 24.152344 C 41.039062 23.875 40.96875 23.640625 40.835938 23.449219 C 40.703125 23.253906 40.496094 23.164062 40.210938 23.164062 C 39.929688 23.164062 39.691406 23.269531 39.496094 23.476562 C 39.300781 23.691406 39.191406 23.976562 39.171875 24.34375 Z M 46.269531 25.351562 C 46.269531 25.636719 46.199219 25.917969 46.042969 26.183594 C 45.886719 26.453125 45.648438 26.667969 45.316406 26.835938 C 44.984375 27.011719 44.550781 27.097656 44.019531 27.097656 C 43.714844 27.097656 43.449219 27.070312 43.222656 27.019531 C 42.996094 26.964844 42.820312 26.90625 42.699219 26.855469 C 42.574219 26.804688 42.511719 26.777344 42.511719 26.777344 L 42.511719 25.265625 L 43.046875 25.265625 L 43.15625 26.230469 C 43.164062 26.261719 43.175781 26.300781 43.210938 26.339844 C 43.242188 26.378906 43.269531 26.40625 43.300781 26.417969 C 43.3125 26.417969 43.390625 26.457031 43.539062 26.523438 C 43.691406 26.582031 43.890625 26.613281 44.15625 26.613281 C 44.519531 26.613281 44.816406 26.53125 45.050781 26.347656 C 45.289062 26.171875 45.40625 25.925781 45.40625 25.605469 C 45.40625 25.4375 45.355469 25.285156 45.265625 25.15625 C 45.167969 25.027344 45.042969 24.914062 44.886719 24.8125 C 44.738281 24.714844 44.578125 24.621094 44.402344 24.539062 C 44.226562 24.460938 44.066406 24.382812 43.910156 24.304688 C 43.675781 24.191406 43.460938 24.074219 43.261719 23.945312 C 43.066406 23.820312 42.90625 23.664062 42.78125 23.476562 C 42.660156 23.292969 42.601562 23.054688 42.601562 22.765625 C 42.601562 22.429688 42.683594 22.128906 42.859375 21.882812 C 43.027344 21.632812 43.261719 21.4375 43.558594 21.300781 C 43.859375 21.164062 44.1875 21.09375 44.5625 21.09375 C 44.867188 21.09375 45.136719 21.125 45.367188 21.183594 C 45.601562 21.242188 45.808594 21.300781 45.984375 21.359375 L 46.0625 21.386719 L 46.0625 22.714844 L 45.574219 22.714844 L 45.445312 21.902344 C 45.4375 21.863281 45.425781 21.828125 45.394531 21.808594 C 45.367188 21.796875 45.335938 21.769531 45.316406 21.75 C 45.289062 21.730469 45.226562 21.699219 45.109375 21.640625 C 44.992188 21.582031 44.816406 21.554688 44.578125 21.554688 C 44.234375 21.554688 43.96875 21.652344 43.765625 21.84375 C 43.574219 22.03125 43.476562 22.273438 43.476562 22.558594 C 43.476562 22.824219 43.578125 23.039062 43.78125 23.210938 C 43.980469 23.386719 44.273438 23.542969 44.65625 23.691406 C 45.171875 23.886719 45.570312 24.101562 45.847656 24.347656 C 46.132812 24.589844 46.269531 24.929688 46.269531 25.351562 Z M 51.066406 24.84375 C 51.066406 25.285156 50.980469 25.675781 50.804688 26.007812 C 50.636719 26.347656 50.390625 26.601562 50.066406 26.785156 C 49.75 26.972656 49.359375 27.0625 48.914062 27.0625 C 48.808594 27.0625 48.699219 27.058594 48.582031 27.042969 C 48.464844 27.023438 48.367188 27.011719 48.285156 27.003906 C 48.199219 26.992188 48.160156 26.984375 48.160156 26.984375 L 48.160156 28.253906 C 48.160156 28.308594 48.175781 28.347656 48.214844 28.378906 C 48.246094 28.410156 48.292969 28.425781 48.34375 28.429688 L 48.847656 28.488281 L 48.847656 28.816406 L 46.78125 28.816406 L 46.78125 28.488281 L 47.1875 28.429688 C 47.304688 28.425781 47.363281 28.367188 47.363281 28.253906 L 47.363281 23.449219 L 46.78125 23.449219 L 46.78125 23.171875 L 47.824219 22.84375 L 48.160156 22.84375 L 48.160156 23.269531 C 48.160156 23.269531 48.195312 23.242188 48.265625 23.191406 C 48.335938 23.136719 48.433594 23.074219 48.550781 23 C 48.671875 22.9375 48.808594 22.871094 48.957031 22.820312 C 49.113281 22.765625 49.277344 22.742188 49.4375 22.742188 C 49.738281 22.742188 50.003906 22.824219 50.25 23 C 50.496094 23.175781 50.6875 23.417969 50.839844 23.730469 C 50.988281 24.042969 51.066406 24.414062 51.066406 24.84375 Z M 50.210938 24.960938 C 50.210938 24.667969 50.171875 24.402344 50.078125 24.152344 C 49.988281 23.90625 49.851562 23.710938 49.679688 23.5625 C 49.503906 23.410156 49.28125 23.339844 49.023438 23.339844 C 48.886719 23.339844 48.746094 23.359375 48.613281 23.40625 C 48.484375 23.445312 48.375 23.488281 48.285156 23.527344 C 48.199219 23.574219 48.160156 23.59375 48.160156 23.59375 L 48.160156 26.53125 C 48.160156 26.53125 48.234375 26.554688 48.375 26.601562 C 48.519531 26.640625 48.671875 26.667969 48.847656 26.667969 C 49.160156 26.667969 49.417969 26.582031 49.621094 26.425781 C 49.820312 26.261719 49.96875 26.054688 50.066406 25.792969 C 50.164062 25.535156 50.210938 25.253906 50.210938 24.960938 Z M 55.6875 24.910156 C 55.6875 25.3125 55.601562 25.675781 55.433594 26.003906 C 55.269531 26.328125 55.039062 26.589844 54.734375 26.777344 C 54.429688 26.964844 54.074219 27.0625 53.65625 27.0625 C 53.242188 27.0625 52.886719 26.964844 52.582031 26.777344 C 52.285156 26.589844 52.050781 26.335938 51.886719 26.007812 C 51.726562 25.683594 51.640625 25.320312 51.640625 24.910156 C 51.640625 24.5 51.726562 24.132812 51.886719 23.808594 C 52.058594 23.476562 52.289062 23.222656 52.59375 23.027344 C 52.898438 22.839844 53.261719 22.742188 53.683594 22.742188 C 54.105469 22.742188 54.460938 22.839844 54.765625 23.035156 C 55.0625 23.230469 55.289062 23.488281 55.445312 23.816406 C 55.609375 24.140625 55.6875 24.503906 55.6875 24.910156 Z M 54.796875 24.902344 C 54.796875 24.589844 54.757812 24.296875 54.683594 24.03125 C 54.597656 23.757812 54.472656 23.542969 54.304688 23.371094 C 54.136719 23.210938 53.929688 23.125 53.671875 23.125 C 53.410156 23.125 53.199219 23.210938 53.027344 23.371094 C 52.859375 23.542969 52.738281 23.757812 52.660156 24.03125 C 52.574219 24.296875 52.535156 24.589844 52.535156 24.902344 C 52.535156 25.207031 52.574219 25.496094 52.660156 25.769531 C 52.738281 26.042969 52.867188 26.257812 53.027344 26.425781 C 53.199219 26.589844 53.410156 26.671875 53.664062 26.671875 C 53.921875 26.671875 54.136719 26.589844 54.304688 26.425781 C 54.472656 26.257812 54.597656 26.042969 54.683594 25.769531 C 54.757812 25.5 54.796875 25.207031 54.796875 24.902344 Z M 58.804688 26.4375 L 58.804688 26.777344 C 58.804688 26.777344 58.75 26.804688 58.640625 26.847656 C 58.539062 26.894531 58.394531 26.945312 58.226562 26.992188 C 58.050781 27.039062 57.863281 27.0625 57.65625 27.0625 C 57.339844 27.0625 57.113281 26.984375 56.964844 26.835938 C 56.820312 26.6875 56.75 26.4375 56.75 26.105469 L 56.75 23.269531 L 56.203125 23.269531 L 56.203125 22.988281 L 56.78125 22.714844 L 57.164062 21.808594 L 57.539062 21.808594 L 57.539062 22.84375 L 58.738281 22.84375 L 58.738281 23.269531 L 57.539062 23.269531 L 57.539062 25.652344 C 57.539062 25.988281 57.597656 26.230469 57.707031 26.375 C 57.820312 26.511719 57.992188 26.582031 58.21875 26.582031 C 58.382812 26.582031 58.523438 26.554688 58.636719 26.511719 C 58.746094 26.464844 58.804688 26.4375 58.804688 26.4375 Z M 58.804688 26.4375 "/>
</g>
<g clip-path="url(#clip2)" clip-rule="nonzero">
<path style=" stroke:none;fill-rule:nonzero;fill:rgb(97.254902%,94.117647%,32.54902%);fill-opacity:1;" d="M 13.167969 20.898438 C 10.941406 20.898438 9.132812 22.714844 9.132812 24.953125 C 9.132812 27.195312 10.941406 29.011719 13.167969 29.011719 C 15.398438 29.011719 17.207031 27.195312 17.207031 24.953125 C 17.207031 22.714844 15.398438 20.898438 13.167969 20.898438 M 13.167969 28.367188 C 11.296875 28.367188 9.773438 26.835938 9.773438 24.953125 C 9.773438 23.074219 11.296875 21.542969 13.167969 21.542969 C 15.046875 21.542969 16.566406 23.074219 16.566406 24.953125 C 16.566406 26.835938 15.046875 28.367188 13.167969 28.367188 "/>
</g>
<g clip-path="url(#clip3)" clip-rule="nonzero">
<path style=" stroke:none;fill-rule:nonzero;fill:rgb(97.254902%,94.117647%,32.54902%);fill-opacity:1;" d="M 13.167969 21.914062 C 11.496094 21.914062 10.140625 23.273438 10.140625 24.953125 C 10.140625 26.632812 11.496094 27.996094 13.167969 27.996094 C 14.839844 27.996094 16.195312 26.632812 16.195312 24.953125 C 16.195312 23.273438 14.839844 21.914062 13.167969 21.914062 M 13.882812 23.652344 C 13.914062 23.710938 13.941406 23.777344 13.953125 23.847656 L 14.640625 23.847656 L 14.363281 24.308594 L 13.953125 24.308594 C 13.921875 24.464844 13.863281 24.601562 13.757812 24.71875 C 13.617188 24.882812 13.316406 25 13.046875 25.070312 C 13.222656 25.378906 14.097656 26.601562 14.289062 26.902344 C 14.210938 26.894531 14.128906 26.886719 14.050781 26.886719 L 13.558594 26.886719 C 13.480469 26.886719 13.394531 26.894531 13.3125 26.902344 L 12.4375 25.46875 L 12.15625 24.960938 C 12.164062 24.960938 12.171875 24.96875 12.175781 24.96875 C 12.195312 24.96875 12.398438 24.96875 12.417969 24.96875 C 12.652344 24.96875 12.832031 24.902344 12.960938 24.773438 C 13.066406 24.667969 13.128906 24.511719 13.144531 24.308594 L 11.613281 24.308594 L 11.886719 23.847656 L 13.109375 23.847656 C 13.109375 23.835938 13.105469 23.820312 13.105469 23.808594 C 13.070312 23.71875 13.019531 23.644531 12.957031 23.59375 C 12.882812 23.546875 12.800781 23.515625 12.695312 23.503906 C 12.613281 23.488281 12.378906 23.484375 12.230469 23.484375 L 11.613281 23.484375 L 11.886719 23.019531 L 14.640625 23.019531 L 14.363281 23.484375 L 13.765625 23.484375 C 13.8125 23.535156 13.851562 23.585938 13.882812 23.652344 "/>
</g>
</g>
</svg>
